<?xml version="1.0"?>
<svg version="1.1" xmlns="http://www.w3.org/2000/svg" width="400" height="90" style=""><path fill="#fc0254" d="M19.592,50.724l0.42,2.352s1.12,0.588,2.744,0.588c1.792,0,3.388-0.784,3.388-2.268c0-3.276-9.464-1.82-9.464-8.736c0-3.864,3.052-5.936,7.112-5.936c3.164,0,6.16,1.12,6.16,1.12l-0.14,5.096l-2.576,0l-0.7-2.38s-1.26-0.42-2.464-0.42c-1.988,0-2.968,0.868-2.968,1.988c0,3.248,9.436,1.96,9.436,8.54c0,4.2-3.248,6.496-7.56,6.496c-3.164,0-6.244-1.064-6.244-1.064l0-5.376l2.856,0z M40.80228,41.68l0.196,1.932s2.66-2.156,5.152-2.156c2.716,0,4.256,1.932,4.256,4.984l0,7.42l1.96,0.7l0,2.24l-7.7,0l0-2.24l1.54-0.7l0-6.664c0-1.288-0.728-2.24-1.904-2.24c-1.736,0-2.996,1.596-2.996,1.596l0,7.308l1.54,0.7l0,2.24l-7.98,0l0-2.24l2.24-0.7l0-9.1l-2.24-0.7l0-2.24z M63.55256,41.4c4.536,0,7.056,2.744,7.056,7.56c0,5.04-2.94,8.12-7.476,8.12c-4.564,0-7.14-2.38-7.14-7.7c0-5.04,2.996-7.98,7.56-7.98z M63.41256,44.76c-2.044,0-3.08,1.12-3.08,4.48c0,3.08,0.896,4.48,2.94,4.48c2.016,0,2.996-1.26,2.996-4.62c0-2.856-0.84-4.34-2.856-4.34z M92.46284,44.48l-1.708-0.42l0-2.24l7.168-0.14l0,2.38l-1.484,0.336l-3.724,12.404l-4.284,0l-2.212-7.14l-0.504-2.184l-0.7,3.052l-2.044,6.272l-4.256,0l-3.808-12.348l-1.232-0.392l0-2.24l7.336-0.14l0,2.38l-1.764,0.336l1.848,7.868l2.968-10.108l3.696-0.616l3.052,10.724z"/><path fill="#ffffff" d="M105.00912,35.12939453125q0-0.1708984375,0.238037109375-0.262451171875t0.311279296875-0.091552734375l0.45166015625-0.0732421875q0.45166015625-0.0732421875,0.91552734375-0.128173828125t0.9033203125-0.103759765625q1.55029296875-0.1953125,3.1005859375-0.384521484375t3.125-0.189208984375q0.1220703125,0,0.335693359375,0.01220703125t0.42724609375,0.067138671875t0.3662109375,0.152587890625t0.152587890625,0.2685546875q0,0.1220703125-0.115966796875,0.213623046875t-0.274658203125,0.140380859375t-0.323486328125,0.06103515625t-0.262451171875,0.01220703125l-0.213623046875,0t-0.213623046875-0.048828125q-0.64697265625,0-1.275634765625,0.06103515625t-1.275634765625,0.10986328125q0.1708984375,0.1953125,0.18310546875,0.54931640625t0.0244140625,0.6103515625q0,4.3212890625,0.06103515625,8.59375t0.10986328125,8.63037109375l0,0.0244140625q-0.40283203125,0.35400390625-0.689697265625,0.45166015625t-0.579833984375,0.09765625q-0.28076171875,0-0.567626953125-0.103759765625t-0.689697265625-0.445556640625l0-0.0244140625l0.09765625-9.58251953125q0-0.9521484375-0.0244140625-2.099609375t-0.0244140625-2.325439453125t0.03662109375-2.276611328125t0.1953125-1.91650390625q-0.72021484375,0.0732421875-1.52587890625,0.2197265625q-0.69580078125,0.1220703125-1.33056640625,0.1220703125l-0.2197265625,0q-0.048828125,0-0.286865234375,0.01220703125t-0.48828125-0.01220703125t-0.45166015625-0.09765625t-0.201416015625-0.244140625z M117.07784558594,44.52880859375q0-0.50048828125,0.177001953125-0.84228515625t0.750732421875-0.341796875q0.2197265625,0,0.54931640625,0.067138671875t0.37841796875,0.335693359375q0.1220703125,0.72021484375,0.13427734375,1.5625t0.08544921875,1.5869140625q0.28076171875-0.54931640625,0.72021484375-1.18408203125t1.0009765625-1.171875t1.220703125-0.89111328125t1.3427734375-0.35400390625q0.048828125,0,0.18310546875,0.03662109375t0.250244140625,0.103759765625t0.140380859375,0.152587890625t-0.13427734375,0.15869140625q-0.048828125,0.146484375-0.20751953125,0.177001953125t-0.28076171875,0.030517578125q-0.0732421875,0-0.23193359375-0.06103515625q-0.9033203125,0.47607421875-1.5380859375,1.2939453125t-1.03759765625,1.812744140625t-0.5859375,2.099609375t-0.18310546875,2.154541015625q0,0.52490234375-0.238037109375,0.634765625t-0.762939453125,0.10986328125q-0.28076171875,0-0.592041015625-0.06103515625t-0.433349609375-0.390625q-0.2197265625-0.69580078125-0.360107421875-1.59912109375t-0.213623046875-1.861572265625t-0.103759765625-1.885986328125t-0.030517578125-1.67236328125z M125.75301648438,47.65380859375q0-1.123046875,0.262451171875-2.203369140625t0.445556640625-2.154541015625q0.048828125-0.28076171875,0.384521484375-0.347900390625t0.567626953125-0.067138671875q0.40283203125,0,0.64697265625,0.1220703125q0.09765625,0.048828125,0.18310546875,0.10986328125t0.08544921875,0.15869140625q0,1.0498046875-0.250244140625,2.05078125t-0.250244140625,2.1240234375q0,0.37841796875,0.054931640625,0.714111328125t0.103759765625,0.665283203125l0.0732421875,0.35400390625q0,0.09765625,0.01220703125,0.1708984375t0.03662109375,0.1708984375q0,0.2197265625-0.311279296875,0.299072265625t-0.543212890625,0.079345703125q-0.35400390625,0-0.653076171875-0.140380859375t-0.469970703125-0.482177734375l-0.1708984375-0.35400390625q-0.146484375-0.28076171875-0.146484375-0.628662109375t-0.06103515625-0.640869140625z M126.53426648438,40.30517578125l0-0.23193359375q0-0.57373046875,0.286865234375-1.025390625t0.860595703125-0.45166015625q0.0732421875,0,0.140380859375,0.01220703125t0.140380859375,0.01220703125q0.146484375,0.0244140625,0.384521484375,0.115966796875t0.238037109375,0.286865234375l0,0.0244140625q-0.048828125,0.09765625-0.06103515625,0.201416015625t-0.06103515625,0.177001953125l0.0244140625-0.0244140625q-0.146484375,0.37841796875-0.238037109375,0.6103515625t-0.201416015625,0.372314453125t-0.274658203125,0.201416015625t-0.469970703125,0.06103515625q-0.048828125,0-0.1708984375-0.01220703125t-0.262451171875-0.048828125t-0.238037109375-0.09765625t-0.09765625-0.18310546875z M131.08346082031,47.70263671875q0-0.87890625,0.225830078125-1.763916015625t0.701904296875-1.5869140625t1.214599609375-1.141357421875t1.739501953125-0.439453125q0.42724609375,0,0.93994140625,0.103759765625t0.946044921875,0.32958984375t0.732421875,0.5859375t0.299072265625,0.885009765625q0,0.32958984375-0.1708984375,0.439453125t-0.45166015625,0.10986328125l-0.08544921875-0.1220703125t-0.238037109375-0.311279296875t-0.323486328125-0.40283203125t-0.32958984375-0.360107421875q-0.50048828125-0.50048828125-0.93994140625-0.537109375l-0.09765625,0q-0.3662109375,0-0.68359375,0.2197265625q-0.35400390625,0.2685546875-0.628662109375,0.7568359375t-0.457763671875,1.03759765625t-0.286865234375,1.11083984375t-0.103759765625,0.927734375q0,0.50048828125,0.115966796875,1.141357421875t0.390625,1.214599609375t0.69580078125,0.96435546875t1.080322265625,0.390625q0.59814453125,0,1.08642578125-0.29296875t0.933837890625-0.653076171875t0.872802734375-0.64697265625t0.87890625-0.286865234375q0.1953125,0,0.396728515625,0.048828125t0.201416015625,0.25634765625l0,0.0732421875q-0.2197265625,0.57373046875-0.74462890625,1.01318359375t-1.177978515625,0.762939453125t-1.35498046875,0.482177734375t-1.251220703125,0.15869140625q-1.025390625,0-1.800537109375-0.335693359375t-1.287841796875-0.921630859375t-0.775146484375-1.409912109375t-0.262451171875-1.800537109375z M141.73617078125,52.90283203125l0.25634765625-0.30517578125q-0.048828125-2.05078125-0.10986328125-4.08935546875t-0.06103515625-4.052734375q0-2.50244140625,0.299072265625-4.840087890625t0.592041015625-4.791259765625q0.0244140625-0.146484375,0.140380859375-0.238037109375t0.286865234375-0.152587890625t0.347900390625-0.08544921875t0.323486328125-0.0244140625q0.1953125,0,0.48828125,0.0732421875t0.5859375,0.42724609375q0,0.1220703125,0.018310546875,0.213623046875t0.018310546875,0.213623046875q0,0.927734375-0.250244140625,1.98974609375t-0.335693359375,2.03857421875q-0.09765625,1.1962890625-0.13427734375,2.3681640625t-0.03662109375,2.38037109375l0.0244140625,1.07421875q0.244140625-0.30517578125,0.69580078125-0.78125t0.9765625-0.921630859375t1.0498046875-0.762939453125t0.9521484375-0.3173828125q0.64697265625,0,0.897216796875,0.3662109375t0.250244140625,0.96435546875q0,0.54931640625-0.238037109375,1.1474609375t-0.62255859375,1.165771484375t-0.872802734375,1.019287109375t-0.96435546875,0.67138671875q0.64697265625,0.8056640625,1.324462890625,1.5380859375t1.483154296875,1.37939453125l0,0.28076171875q-0.0244140625,0.1220703125-0.152587890625,0.18310546875t-0.28076171875,0.09765625t-0.299072265625,0.054931640625t-0.244140625,0.018310546875q-0.59814453125,0-1.153564453125-0.35400390625t-1.03759765625-0.86669921875t-0.909423828125-1.08642578125t-0.78125-1.0009765625q0.0732421875,1.40380859375,0.164794921875,2.801513671875t0.091552734375,2.801513671875q0,0.1708984375-0.152587890625,0.286865234375t-0.35400390625,0.177001953125t-0.408935546875,0.08544921875t-0.341796875,0.0244140625q-0.72021484375,0-1.019287109375-0.262451171875t-0.506591796875-0.909423828125z M144.2386121875,47.1533203125q0.30517578125,0,0.726318359375-0.262451171875t0.872802734375-0.653076171875t0.84228515625-0.823974609375t0.628662109375-0.823974609375t0.238037109375-0.628662109375t-0.32958984375-0.213623046875q-0.1220703125,0-0.50048828125,0.35400390625t-0.84228515625,0.86669921875t-0.927734375,1.11083984375t-0.7080078125,1.07421875z M151.61983777344,44.79736328125q0-0.50048828125,0.29296875-0.860595703125t0.714111328125-0.5859375t0.921630859375-0.335693359375t0.927734375-0.10986328125q0.32958984375,0,0.87890625,0.09765625t1.07421875,0.29296875t0.909423828125,0.5126953125t0.384521484375,0.74462890625q0,0.1953125-0.146484375,0.347900390625t-0.30517578125,0.152587890625q-0.32958984375,0-0.59814453125-0.213623046875t-0.555419921875-0.45166015625t-0.628662109375-0.45166015625t-0.76904296875-0.213623046875t-0.775146484375,0.274658203125t-0.347900390625,0.726318359375q0,0.74462890625,0.52490234375,1.458740234375t1.153564453125,1.50146484375t1.153564453125,1.654052734375t0.52490234375,1.91650390625q0,0.45166015625-0.189208984375,0.762939453125t-0.50048828125,0.506591796875t-0.701904296875,0.299072265625t-0.7568359375,0.103759765625q-0.40283203125,0-0.93994140625-0.189208984375t-1.01318359375-0.50048828125t-0.799560546875-0.726318359375t-0.323486328125-0.86669921875q0-0.2197265625,0.311279296875-0.28076171875t0.457763671875-0.06103515625q0.0732421875,0,0.225830078125,0.048828125t0.299072265625,0.10986328125t0.262451171875,0.13427734375t0.091552734375,0.15869140625q0.1220703125,0.146484375,0.372314453125,0.433349609375t0.50048828125,0.4638671875t0.439453125,0.128173828125t0.189208984375-0.54931640625q0-0.9521484375-0.5126953125-1.751708984375t-1.116943359375-1.5625t-1.116943359375-1.513671875t-0.5126953125-1.605224609375z"/></svg>
